# xmcd
#
# Track frame offsets:
#	182
#	14867
#	30700
#	42705
#	59175
#	75205
#	96680
#	112800
#	124535
#	140872
#
# Disc length: 2053 seconds
#
# Revision: 2
# Processed by: cddbd v1.5.2PL0 Copyright (c) Steve Scherf et al.
# Submitted via: audiograbber 1.83.01
#
DISCID=9308030a
DTITLE=Stephanie Davis - Stephanie Davis
DYEAR=1993
DGENRE=Country
TTITLE0=It's All In The Heart
TTITLE1=Just A Cup Of Coffee
TTITLE2=Summer Nights In Dixie
TTITLE3=Talking To The Moon
TTITLE4=Wind
TTITLE5=Moonlighter
TTITLE6=Why Can't He Be You
TTITLE7=If I Don't Have You
TTITLE8=Looks Like Lonesome
TTITLE9=Lone Star Swing
EXTD=
EXTT0=
EXTT1=
EXTT2=
EXTT3=
EXTT4=
EXTT5=
EXTT6=
EXTT7=
EXTT8=
EXTT9=
PLAYORDER=
